<svg width="82" height="21" viewBox="0 0 82 21" fill="none" xmlns="http://www.w3.org/2000/svg">
<path d="M8.208 10.016H6V20H1.896V10.016H0.408V6.608H1.896V6.224C1.896 4.576 2.368 3.328 3.312 2.48C4.256 1.616 5.64 1.184 7.464 1.184C7.768 1.184 7.992 1.192 8.136 1.208V4.688C7.352 4.64 6.8 4.752 6.48 5.024C6.16 5.296 6 5.784 6 6.488V6.608H8.208V10.016ZM11.4804 5.216C10.7604 5.216 10.1684 5.008 9.70444 4.592C9.25644 4.16 9.03244 3.632 9.03244 3.008C9.03244 2.368 9.25644 1.84 9.70444 1.424C10.1684 0.991999 10.7604 0.775999 11.4804 0.775999C12.1844 0.775999 12.7604 0.991999 13.2084 1.424C13.6724 1.84 13.9044 2.368 13.9044 3.008C13.9044 3.632 13.6724 4.16 13.2084 4.592C12.7604 5.008 12.1844 5.216 11.4804 5.216ZM13.5204 6.608V20H9.41644V6.608H13.5204ZM23.9346 6.464C25.5026 6.464 26.7506 6.976 27.6786 8C28.6226 9.008 29.0946 10.4 29.0946 12.176V20H25.0146V12.728C25.0146 11.832 24.7826 11.136 24.3186 10.64C23.8546 10.144 23.2306 9.896 22.4466 9.896C21.6626 9.896 21.0386 10.144 20.5746 10.64C20.1106 11.136 19.8786 11.832 19.8786 12.728V20H15.7746V6.608H19.8786V8.384C20.2946 7.792 20.8546 7.328 21.5586 6.992C22.2626 6.64 23.0546 6.464 23.9346 6.464ZM38.6904 16.52V20H36.6024C35.1144 20 33.9544 19.64 33.1224 18.92C32.2904 18.184 31.8744 16.992 31.8744 15.344V10.016H30.2424V6.608H31.8744V3.344H35.9784V6.608H38.6664V10.016H35.9784V15.392C35.9784 15.792 36.0744 16.08 36.2664 16.256C36.4584 16.432 36.7784 16.52 37.2264 16.52H38.6904ZM52.8804 13.088C52.8804 13.472 52.8564 13.872 52.8084 14.288H43.5204C43.5844 15.12 43.8484 15.76 44.3124 16.208C44.7924 16.64 45.3764 16.856 46.0644 16.856C47.0884 16.856 47.8004 16.424 48.2004 15.56H52.5684C52.3444 16.44 51.9364 17.232 51.3444 17.936C50.7684 18.64 50.0404 19.192 49.1604 19.592C48.2804 19.992 47.2964 20.192 46.2084 20.192C44.8964 20.192 43.7284 19.912 42.7044 19.352C41.6804 18.792 40.8804 17.992 40.3044 16.952C39.7284 15.912 39.4404 14.696 39.4404 13.304C39.4404 11.912 39.7204 10.696 40.2804 9.656C40.8564 8.616 41.6564 7.816 42.6804 7.256C43.7044 6.696 44.8804 6.416 46.2084 6.416C47.5044 6.416 48.6564 6.688 49.6644 7.232C50.6724 7.776 51.4564 8.552 52.0164 9.56C52.5924 10.568 52.8804 11.744 52.8804 13.088ZM48.6804 12.008C48.6804 11.304 48.4404 10.744 47.9604 10.328C47.4804 9.912 46.8804 9.704 46.1604 9.704C45.4724 9.704 44.8884 9.904 44.4084 10.304C43.9444 10.704 43.6564 11.272 43.5444 12.008H48.6804ZM53.5095 13.304C53.5095 11.912 53.7895 10.696 54.3495 9.656C54.9255 8.616 55.7175 7.816 56.7255 7.256C57.7495 6.696 58.9175 6.416 60.2295 6.416C61.9095 6.416 63.3095 6.856 64.4295 7.736C65.5655 8.616 66.3095 9.856 66.6615 11.456H62.2935C61.9255 10.432 61.2135 9.92 60.1575 9.92C59.4055 9.92 58.8055 10.216 58.3575 10.808C57.9095 11.384 57.6855 12.216 57.6855 13.304C57.6855 14.392 57.9095 15.232 58.3575 15.824C58.8055 16.4 59.4055 16.688 60.1575 16.688C61.2135 16.688 61.9255 16.176 62.2935 15.152H66.6615C66.3095 16.72 65.5655 17.952 64.4295 18.848C63.2935 19.744 61.8935 20.192 60.2295 20.192C58.9175 20.192 57.7495 19.912 56.7255 19.352C55.7175 18.792 54.9255 17.992 54.3495 16.952C53.7895 15.912 53.5095 14.696 53.5095 13.304ZM76.3688 6.464C77.9048 6.464 79.1368 6.976 80.0648 8C80.9928 9.008 81.4568 10.4 81.4568 12.176V20H77.3768V12.728C77.3768 11.832 77.1448 11.136 76.6808 10.64C76.2168 10.144 75.5928 9.896 74.8088 9.896C74.0248 9.896 73.4008 10.144 72.9368 10.64C72.4728 11.136 72.2408 11.832 72.2408 12.728V20H68.1368V2.24H72.2408V8.408C72.6568 7.816 73.2248 7.344 73.9448 6.992C74.6648 6.64 75.4728 6.464 76.3688 6.464Z" fill="#D1D4D9"/>
</svg>
